<?xml version="1.0" encoding="UTF-8"?>
<!-- Generated by Pixelmator Pro 3.7 -->
<svg width="1365" height="1365" viewBox="0 0 1365 1365" xmlns="http://www.w3.org/2000/svg">
    <g id="Group">
        <path id="Path" fill="#03b300" stroke="none" d="M 238.666672 1.133301 C 203.066666 4.866699 166.133331 16.866699 133.600006 35.666626 C 59.333332 78.199951 10 154.599976 1.333333 240.866699 C -0.533333 259.93335 -0.533333 1104.733398 1.333333 1123.800049 C 14.133333 1251.133301 114 1351 241.199997 1363.666626 C 260.266663 1365.533325 1105.06665 1365.533325 1124.133301 1363.666626 C 1216.533325 1354.466675 1297.599976 1298.199951 1338 1215.133301 C 1352.266724 1186.06665 1360.666626 1156.199951 1364 1123.800049 C 1365.866699 1104.733398 1365.866699 259.93335 1364 240.866699 C 1351.199951 113.533325 1251.199951 13.666626 1124.133301 1 C 1106.93335 -0.733276 255.333328 -0.466675 238.666672 1.133301 Z M 1117.06665 173.266724 C 1119.333374 175.533325 1119.06665 181.93335 1116 199.666626 C 1109.466675 239 1105.466675 255.800049 1096.133301 284.333374 C 1083.333374 323.400024 1071.06665 353.533325 1053.599976 388.733337 C 1033.06665 429.93335 1013.599976 461.799988 987.599976 497 C 948 550.466675 922.666687 577.799988 865.733337 628.733337 C 834.266663 656.866638 780.799988 692.06665 741.866638 710.466675 C 720.533325 720.466675 720.133362 720.466675 710.93335 710.599976 C 706.799988 706.200012 698.533325 698.733337 692.666687 694.200012 C 686.799988 689.666687 677.866638 681.799988 672.666687 677 C 667.599976 672.06665 654 660.06665 642.666687 650.333313 C 622.93335 633.400024 617.333313 627.266663 617.333313 622.06665 C 617.333313 619 625.200012 598.599976 641.599976 559 C 645.599976 549.400024 651.06665 535.93335 653.866638 529 C 664.133362 503.133362 666.133362 498.466675 676.133362 477.400024 C 700.533325 426.200012 721.866638 395.666687 754.266663 365.266663 C 787.333313 334.466675 807.599976 318.199951 852 287.266724 C 887.733337 262.333374 925.466675 242.199951 978.666687 219.666626 C 995.733337 212.466675 1024.533325 201.400024 1044.666626 194.333374 C 1051.333374 192.06665 1062.133301 188.06665 1068.666626 185.666626 C 1104.800049 172.199951 1113.733276 169.93335 1117.06665 173.266724 Z M 673.466675 429.93335 C 676 432.466675 673.733337 439.93335 667.466675 449.799988 C 655.333313 469.266663 639.200012 499.133362 621.06665 535.666687 C 597.866638 582.466675 589.599976 600.733337 581.06665 623 C 577.466675 632.466675 573.599976 642.466675 572.666687 645 C 571.599976 647.533325 570.799988 652.599976 570.666687 656.333313 C 570.666687 664.599976 568.400024 672.866638 566 673.799988 C 565.06665 674.200012 561.200012 673 557.466675 671.133362 C 550.266663 667.400024 544.133362 666.733337 539.599976 669.266663 C 536.93335 670.599976 501.866669 702.466675 464.666656 737.266663 C 455.866669 745.533325 441.733337 757.533325 433.333344 763.799988 C 416.799988 776.200012 376.133331 802.200012 353.333344 814.866638 C 345.600006 819.266663 333.333344 826.466675 326 831 C 306.399994 843.266663 289.600006 852.06665 287.333344 851.133362 C 284.399994 850.06665 284.799988 842.599976 288.133331 836.333313 C 289.600006 833.400024 294 826.200012 297.866669 820.333313 C 301.866669 814.466675 309.066681 803 314 795 C 319.066681 786.866638 327.466675 773.666687 332.666656 765.666687 C 338 757.533325 344 747.93335 346 744.333313 C 348 740.599976 350.666656 736.200012 352 734.333313 C 354.266663 731.133362 376 692.200012 386.533325 672.466675 C 389.466675 667.266663 395.733337 655.533325 400.666656 646.333313 C 410.799988 627.533325 418.799988 612.333313 443.600006 564.333313 C 481.333344 491.533325 504.399994 457.400024 519.333313 451.666687 C 521.599976 450.866638 534.266663 448.333313 547.733337 446.200012 C 561.06665 444.06665 579.466675 440.866638 588.400024 439.133362 C 597.333313 437.266663 607.733337 435.533325 611.333313 435 C 617.200012 434.200012 642.400024 430.200012 652 428.466675 C 657.866638 427.400024 672 428.466675 673.466675 429.93335 Z M 914.666687 636.333313 C 915.866638 637.799988 916.133362 642.866638 915.466675 655.93335 C 914.93335 665.666687 914 686.200012 913.333313 701.666687 C 910.400024 763.400024 906.93335 812.06665 904 829.93335 C 901.466675 845.266663 897.466675 855.533325 891.733337 861.799988 C 880.666687 873.799988 858.266663 892.599976 794.93335 942.866699 C 739.599976 986.733337 730.266663 994.200012 698.533325 1021 C 639.06665 1070.733398 562.666687 1142.599976 528.133362 1181 C 511.600006 1199.400024 509.333344 1201.400024 506.399994 1200.333374 C 501.600006 1198.466675 501.066681 1193.400024 502 1161.666626 C 504.799988 1060.466675 511.333344 1036.199951 552.400024 977.266663 C 585.599976 929.400024 634 876.599976 692.666687 824.200012 C 707.333313 811.133362 719.599976 800.06665 720 799.666687 C 720.400024 799.266663 724.266663 796.06665 728.666687 792.333313 C 733.06665 788.733337 742.93335 780.06665 750.666687 773 C 758.400024 766.06665 775.200012 751 788 739.666687 C 800.666687 728.333313 819.599976 711.133362 829.866638 701.666687 C 840.266663 692.06665 853.733337 680.06665 860 675.133362 C 866.266663 670.06665 874.400024 663.133362 878 659.666687 C 888.533325 649.93335 909.333313 634.333313 912 634.333313 C 912.533325 634.333313 913.733337 635.266663 914.666687 636.333313 Z M 618.799988 724.466675 C 624 727 631.466675 735.93335 636.133362 745.266663 C 641.866638 756.599976 643.06665 771 638.799988 779.266663 C 629.200012 798.06665 570.266663 856.866699 501.333344 916.333374 C 488.533325 927.266663 475.066681 939 471.333344 942.333374 C 467.600006 945.666626 457.466675 954.333374 448.666656 961.666626 C 431.733337 975.666626 407.333344 996.599976 397.333344 1005.799988 C 394 1008.866699 388.933319 1013.400024 386 1015.799988 C 383.066681 1018.333374 379.200012 1021.666626 377.333344 1023.400024 C 375.466675 1025.133301 371.733337 1027.666626 368.933319 1029.133301 C 364.399994 1031.533325 363.866669 1031.533325 363.066681 1029.533325 C 362.133331 1027 368.933319 1013.666626 380.399994 995.666626 C 393.333344 975.533325 420.133331 934.866699 430.533325 919.93335 C 459.066681 878.733337 465.600006 869.533325 480.799988 848.599976 C 517.599976 797.799988 545.200012 763.533325 562.400024 747.533325 C 570.533325 739.93335 576.799988 735.533325 586.93335 730.200012 C 605.599976 720.733337 609.733337 719.93335 618.799988 724.466675 Z"/>
    </g>
</svg>
